<?xml version="1.0" encoding="UTF-8" ?>
<!DOCTYPE svg PUBLIC "-//W3C//DTD SVG 1.1//EN" "http://www.w3.org/Graphics/SVG/1.1/DTD/svg11.dtd">
<svg width="512pt" height="512pt" viewBox="0 0 512 512" version="1.1" xmlns="http://www.w3.org/2000/svg">
<path fill="#eeeeee" stroke="#eeeeee" stroke-width="0.09375" opacity="0.97" d=" M 377.20 70.75 C 388.76 69.31 400.53 66.28 412.13 69.31 C 419.61 69.68 426.63 72.22 433.70 74.48 C 442.62 78.74 451.81 83.04 459.01 89.98 C 464.75 94.54 469.39 100.26 473.98 105.93 C 478.24 112.51 481.96 119.48 485.05 126.68 C 486.58 133.31 490.16 139.65 489.15 146.67 C 488.64 149.74 489.11 152.79 491.76 154.71 C 491.90 157.23 491.91 159.75 491.72 162.27 C 489.62 163.95 488.93 166.49 488.94 169.08 C 488.77 175.09 487.59 180.98 486.40 186.85 C 478.47 210.64 460.55 231.20 437.54 241.39 C 427.03 245.60 415.77 250.36 404.22 247.95 C 406.17 246.48 408.14 244.83 410.64 244.46 C 419.51 242.66 428.53 240.88 436.70 236.84 C 450.34 229.91 462.72 220.08 471.40 207.37 C 481.58 191.61 487.74 172.82 486.67 153.93 C 486.27 146.97 484.44 140.17 482.49 133.51 C 479.29 124.12 475.25 114.83 468.96 107.07 C 461.73 97.98 453.09 89.85 443.00 84.02 C 432.04 78.31 420.32 73.61 407.89 72.55 C 391.05 70.86 374.00 75.22 359.19 83.17 C 348.81 88.16 340.32 96.29 332.99 105.02 C 327.15 112.91 321.73 121.33 318.70 130.73 C 316.04 138.88 314.14 147.36 314.16 155.96 C 313.87 163.51 314.87 171.00 315.66 178.48 C 314.27 178.39 312.88 178.29 311.50 178.21 C 311.42 177.77 311.26 176.89 311.18 176.44 C 310.86 174.71 310.56 172.97 310.53 171.21 C 310.88 163.46 310.35 155.70 310.83 147.96 C 312.17 136.03 316.15 124.45 322.13 114.05 C 324.41 110.36 326.73 106.69 329.05 103.03 C 332.66 98.92 336.54 95.06 340.25 91.05 C 350.75 81.43 363.67 74.91 377.20 70.75 Z" />
<path fill="#7b7b7b" stroke="#7b7b7b" stroke-width="0.09375" opacity="1.00" d=" M 359.19 83.17 C 374.00 75.22 391.05 70.86 407.89 72.55 C 420.32 73.61 432.04 78.31 443.00 84.02 C 453.09 89.85 461.73 97.98 468.96 107.07 C 475.25 114.83 479.29 124.12 482.49 133.51 C 484.44 140.17 486.27 146.97 486.67 153.93 C 487.74 172.82 481.58 191.61 471.40 207.37 C 462.72 220.08 450.34 229.91 436.70 236.84 C 428.53 240.88 419.51 242.66 410.64 244.46 C 408.14 244.83 406.17 246.48 404.22 247.95 C 403.25 248.68 401.97 248.69 400.85 249.01 C 402.15 247.35 403.14 245.15 405.27 244.39 C 409.73 242.70 414.53 242.30 419.17 241.31 C 427.81 239.65 436.00 236.10 443.47 231.50 C 460.68 221.54 473.96 205.08 480.42 186.30 C 486.92 166.78 486.39 144.82 478.23 125.86 C 473.46 113.43 464.81 102.82 454.85 94.15 C 426.32 68.90 379.90 67.52 349.75 90.72 C 342.45 96.37 335.58 102.77 330.56 110.58 C 325.15 118.76 320.33 127.58 318.26 137.24 C 316.68 146.72 314.45 156.33 315.85 165.99 C 316.35 170.15 318.09 174.22 317.53 178.46 C 316.77 179.21 315.89 179.71 314.86 179.98 C 313.86 180.07 312.86 180.14 311.86 180.20 C 311.77 179.70 311.59 178.70 311.50 178.21 C 312.88 178.29 314.27 178.39 315.66 178.48 C 314.87 171.00 313.87 163.51 314.16 155.96 C 314.14 147.36 316.04 138.88 318.70 130.73 C 321.73 121.33 327.15 112.91 332.99 105.02 C 340.32 96.29 348.81 88.16 359.19 83.17 Z" />
<path fill="#000000" stroke="#000000" stroke-width="0.09375" opacity="1.00" d=" M 349.75 90.72 C 379.90 67.52 426.32 68.90 454.85 94.15 C 464.81 102.82 473.46 113.43 478.23 125.86 C 486.39 144.82 486.92 166.78 480.42 186.30 C 473.96 205.08 460.68 221.54 443.47 231.50 C 436.00 236.10 427.81 239.65 419.17 241.31 C 414.53 242.30 409.73 242.70 405.27 244.39 C 403.14 245.15 402.15 247.35 400.85 249.01 C 399.96 250.49 398.21 251.01 396.81 251.85 C 393.34 253.48 391.03 256.68 387.85 258.74 C 384.45 261.09 380.22 262.51 377.84 266.11 C 372.80 267.34 368.98 270.99 364.98 274.04 C 326.88 301.57 289.02 329.43 250.87 356.88 C 245.71 361.21 240.17 365.01 234.41 368.48 C 228.26 373.26 222.10 378.04 215.68 382.47 C 218.15 376.45 224.34 373.26 228.07 368.12 C 227.38 368.12 226.01 368.11 225.32 368.10 C 234.99 362.07 243.74 354.75 252.85 347.93 C 257.41 344.43 262.61 341.79 266.77 337.77 C 270.84 333.71 276.04 331.10 280.48 327.49 C 291.76 318.71 303.23 310.18 314.82 301.80 C 323.48 294.26 333.36 288.31 342.28 281.09 C 347.33 277.18 353.00 274.10 357.75 269.78 C 362.77 265.24 368.36 261.41 374.01 257.72 C 377.83 254.95 382.29 252.68 384.78 248.50 C 387.31 247.91 389.30 246.28 390.72 244.15 C 384.63 242.39 378.25 241.88 372.23 239.85 C 359.84 235.88 349.00 228.23 339.59 219.41 C 335.99 215.92 333.09 211.82 330.22 207.74 C 327.86 202.27 324.55 197.28 322.16 191.82 C 321.39 190.27 320.74 188.59 319.48 187.36 C 317.15 186.85 314.91 187.99 312.81 188.84 C 300.24 194.82 287.22 199.79 274.59 205.61 C 266.34 209.10 258.14 212.68 249.79 215.90 C 248.56 215.91 247.34 215.91 246.12 215.88 C 248.06 213.60 250.01 211.33 251.93 209.03 C 250.70 209.08 249.47 209.17 248.25 209.28 C 257.23 205.58 265.72 200.70 275.00 197.71 C 275.02 197.27 275.04 196.83 275.07 196.39 C 289.01 192.57 300.93 183.76 314.86 179.98 C 315.89 179.71 316.77 179.21 317.53 178.46 C 318.09 174.22 316.35 170.15 315.85 165.99 C 314.45 156.33 316.68 146.72 318.26 137.24 C 320.33 127.58 325.15 118.76 330.56 110.58 C 335.58 102.77 342.45 96.37 349.75 90.72 M 401.57 86.48 C 401.43 89.43 401.39 92.38 401.44 95.34 C 406.01 95.55 410.60 96.29 414.90 97.88 C 418.21 99.21 421.20 102.04 424.98 101.59 C 427.71 100.88 429.92 98.53 429.83 95.61 C 425.51 93.08 421.17 90.56 416.59 88.52 C 411.89 86.40 406.62 86.33 401.57 86.48 M 431.12 107.11 C 431.25 109.51 434.08 111.69 436.37 110.46 C 438.56 109.37 439.54 106.98 440.76 105.01 C 439.23 103.95 438.08 101.60 436.07 101.66 C 433.97 102.96 432.08 104.80 431.12 107.11 Z" />
<path fill="#fbfbfb" stroke="#fbfbfb" stroke-width="0.09375" opacity="1.00" d=" M 401.57 86.48 C 406.62 86.33 411.89 86.40 416.59 88.52 C 421.17 90.56 425.51 93.08 429.83 95.61 C 429.92 98.53 427.71 100.88 424.98 101.59 C 421.20 102.04 418.21 99.21 414.90 97.88 C 410.60 96.29 406.01 95.55 401.44 95.34 C 401.39 92.38 401.43 89.43 401.57 86.48 Z" />
<path fill="#000000" stroke="#000000" stroke-width="0.09375" opacity="0.46" d=" M 326.12 93.39 C 330.24 92.61 334.29 90.89 338.56 91.48 C 337.67 91.96 336.80 92.46 335.93 92.97 C 324.57 95.22 313.28 97.84 302.12 100.96 C 283.38 104.74 265.03 110.14 246.45 114.57 C 225.98 119.13 205.70 124.50 185.31 129.43 C 167.81 134.29 149.96 137.73 132.41 142.41 C 102.15 149.69 71.99 157.40 41.72 164.71 C 38.85 165.44 35.97 166.19 33.24 167.35 C 34.03 166.51 34.64 165.36 35.78 164.96 C 42.00 162.67 48.75 162.39 54.95 160.03 C 59.41 158.38 64.20 158.08 68.75 156.80 C 77.19 154.32 85.87 152.77 94.32 150.30 C 103.93 148.16 113.37 145.31 123.03 143.41 C 129.15 142.47 134.79 139.64 140.97 138.95 C 151.95 136.23 162.96 133.57 173.96 130.91 C 183.58 128.41 193.13 125.49 202.97 123.94 C 210.11 122.43 217.11 120.32 224.16 118.45 C 238.01 115.36 251.67 111.45 265.56 108.53 C 273.10 105.73 281.13 104.83 288.86 102.72 C 301.41 100.14 313.67 96.38 326.12 93.39 Z" />
<path fill="#696969" stroke="#696969" stroke-width="0.09375" opacity="0.94" d=" M 338.56 91.48 C 338.98 91.37 339.83 91.16 340.25 91.05 C 336.54 95.06 332.66 98.92 329.05 103.03 C 330.84 99.36 333.21 96.00 335.93 92.97 C 336.80 92.46 337.67 91.96 338.56 91.48 Z" />
<path fill="#000000" stroke="#000000" stroke-width="0.09375" opacity="0.97" d=" M 302.12 100.96 C 313.28 97.84 324.57 95.22 335.93 92.97 C 333.21 96.00 330.84 99.36 329.05 103.03 C 328.62 103.08 327.78 103.17 327.36 103.22 C 320.20 103.69 313.29 105.65 306.35 107.29 C 296.67 109.93 286.74 111.54 277.03 114.05 C 268.42 116.32 259.62 117.79 251.01 120.09 C 238.05 123.46 224.82 125.65 211.82 128.86 C 198.17 132.40 184.35 135.22 170.63 138.49 C 162.28 139.86 154.24 142.62 145.90 144.04 C 123.85 148.84 102.03 154.70 79.88 159.07 C 73.56 160.86 67.20 162.50 60.73 163.64 C 51.35 165.30 42.20 169.48 32.49 168.18 L 33.24 167.35 C 35.97 166.19 38.85 165.44 41.72 164.71 C 71.99 157.40 102.15 149.69 132.41 142.41 C 149.96 137.73 167.81 134.29 185.31 129.43 C 205.70 124.50 225.98 119.13 246.45 114.57 C 265.03 110.14 283.38 104.74 302.12 100.96 Z" />
<path fill="#fafafa" stroke="#fafafa" stroke-width="0.09375" opacity="1.00" d=" M 431.12 107.11 C 432.08 104.80 433.97 102.96 436.07 101.66 C 438.08 101.60 439.23 103.95 440.76 105.01 C 439.54 106.98 438.56 109.37 436.37 110.46 C 434.08 111.69 431.25 109.51 431.12 107.11 Z" />
<path fill="#000000" stroke="#000000" stroke-width="0.09375" opacity="0.45" d=" M 306.35 107.29 C 313.29 105.65 320.20 103.69 327.36 103.22 C 326.69 104.17 326.07 105.13 325.45 106.11 C 325.10 105.71 324.38 104.92 324.02 104.52 C 304.93 108.88 285.98 113.89 266.78 117.74 C 243.19 122.93 219.71 128.61 196.20 134.15 C 174.17 138.69 152.32 143.98 130.43 149.10 C 125.37 149.94 120.32 150.88 115.46 152.56 C 101.73 155.72 87.91 158.53 74.25 162.05 C 61.77 164.49 49.58 168.50 36.89 169.78 C 35.26 169.94 33.92 168.74 32.49 168.18 C 42.20 169.48 51.35 165.30 60.73 163.64 C 67.20 162.50 73.56 160.86 79.88 159.07 C 102.03 154.70 123.85 148.84 145.90 144.04 C 154.24 142.62 162.28 139.86 170.63 138.49 C 184.35 135.22 198.17 132.40 211.82 128.86 C 224.82 125.65 238.05 123.46 251.01 120.09 C 259.62 117.79 268.42 116.32 277.03 114.05 C 286.74 111.54 296.67 109.93 306.35 107.29 Z" />
<path fill="#7b7b7b" stroke="#7b7b7b" stroke-width="0.09375" opacity="0.49" d=" M 327.36 103.22 C 327.78 103.17 328.62 103.08 329.05 103.03 C 326.73 106.69 324.41 110.36 322.13 114.05 C 316.15 124.45 312.17 136.03 310.83 147.96 C 310.35 155.70 310.88 163.46 310.53 171.21 C 309.73 168.54 309.39 165.77 309.45 162.99 C 309.50 154.89 309.39 146.71 310.91 138.72 C 313.84 127.13 318.64 115.96 325.45 106.11 C 326.07 105.13 326.69 104.17 327.36 103.22 Z" />
<path fill="#a4a4a4" stroke="#a4a4a4" stroke-width="0.09375" opacity="0.64" d=" M 489.15 146.67 C 489.78 146.79 491.05 147.03 491.68 147.15 C 492.07 149.65 491.92 152.19 491.76 154.71 C 489.11 152.79 488.64 149.74 489.15 146.67 Z" />
<path fill="#6695e8" stroke="#6695e8" stroke-width="0.09375" opacity="1.00" d=" M 189.12 153.54 C 193.77 153.41 198.33 152.39 202.96 152.00 C 214.97 151.94 226.98 152.08 239.00 151.95 C 244.69 151.76 250.21 153.43 255.89 153.54 C 266.31 157.53 277.55 159.34 287.55 164.49 C 293.32 166.90 298.77 169.96 304.29 172.88 C 306.54 174.14 308.52 176.08 311.18 176.44 C 311.26 176.89 311.42 177.77 311.50 178.21 C 311.59 178.70 311.77 179.70 311.86 180.20 C 312.86 180.14 313.86 180.07 314.86 179.98 C 300.93 183.76 289.01 192.57 275.07 196.39 C 275.04 196.83 275.02 197.27 275.00 197.71 C 265.72 200.70 257.23 205.58 248.25 209.28 C 237.67 214.40 226.69 218.65 215.99 223.49 C 216.04 223.86 216.09 224.23 216.15 224.60 C 209.17 225.44 203.55 229.89 197.05 232.10 C 194.01 233.22 191.12 234.71 188.27 236.23 C 182.83 239.11 176.69 240.36 171.39 243.54 C 167.48 245.95 163.09 247.38 158.85 249.10 C 150.87 252.63 143.35 257.18 135.11 260.14 C 128.28 262.63 121.64 265.61 115.25 269.08 C 110.14 271.87 104.49 273.47 99.37 276.25 C 94.47 278.86 89.32 280.97 83.97 282.45 C 83.97 282.81 83.97 283.17 83.97 283.54 C 76.82 285.97 70.22 289.68 63.22 292.48 C 63.17 287.65 64.44 282.94 64.54 278.11 C 68.47 267.95 70.19 256.97 75.23 247.21 C 82.69 229.11 94.76 213.34 107.81 198.90 C 114.11 192.45 121.50 187.21 128.40 181.43 C 140.74 172.32 154.38 165.04 168.82 159.86 C 175.61 157.83 182.48 156.02 189.12 153.54 Z" />
<path fill="#b5b5b5" stroke="#b5b5b5" stroke-width="0.09375" opacity="0.71" d=" M 488.94 169.08 C 488.93 166.49 489.62 163.95 491.72 162.27 C 491.74 164.16 492.05 166.04 492.07 167.94 C 491.02 168.31 489.98 168.69 488.94 169.08 Z" />
<path fill="#484848" stroke="#484848" stroke-width="0.09375" opacity="0.29" d=" M 488.94 169.08 C 489.98 168.69 491.02 168.31 492.07 167.94 C 492.30 174.60 490.04 181.35 486.40 186.85 C 487.59 180.98 488.77 175.09 488.94 169.08 Z" />
<path fill="#3d5276" stroke="#3d5276" stroke-width="0.09375" opacity="1.00" d=" M 312.81 188.84 C 314.91 187.99 317.15 186.85 319.48 187.36 C 320.74 188.59 321.39 190.27 322.16 191.82 C 324.55 197.28 327.86 202.27 330.22 207.74 C 324.66 202.00 322.38 194.23 318.32 187.54 C 317.03 188.23 315.75 188.92 314.47 189.59 C 301.21 195.78 287.61 201.19 274.28 207.21 C 263.97 210.91 254.36 216.26 244.12 220.14 C 236.31 223.70 228.49 227.23 220.51 230.39 C 212.61 233.51 205.29 238.10 196.92 239.93 C 208.39 233.43 220.94 229.18 232.95 223.81 C 238.56 221.17 244.28 218.77 249.79 215.90 C 258.14 212.68 266.34 209.10 274.59 205.61 C 287.22 199.79 300.24 194.82 312.81 188.84 Z" />
<path fill="#edeff5" stroke="#edeff5" stroke-width="0.09375" opacity="1.00" d=" M 314.47 189.59 C 315.75 188.92 317.03 188.23 318.32 187.54 C 322.38 194.23 324.66 202.00 330.22 207.74 C 333.09 211.82 335.99 215.92 339.59 219.41 C 349.00 228.23 359.84 235.88 372.23 239.85 C 378.25 241.88 384.63 242.39 390.72 244.15 C 389.30 246.28 387.31 247.91 384.78 248.50 C 379.64 246.81 374.28 245.96 369.12 244.39 C 363.21 241.52 356.91 239.33 351.56 235.44 C 346.54 231.84 341.33 228.43 336.87 224.12 C 330.59 218.09 325.61 210.84 321.23 203.36 C 320.26 201.57 319.38 199.75 318.51 197.92 C 317.17 195.14 315.82 192.36 314.47 189.59 Z" />
<path fill="#6695e8" stroke="#6695e8" stroke-width="0.09375" opacity="1.00" d=" M 274.28 207.21 C 287.61 201.19 301.21 195.78 314.47 189.59 C 315.82 192.36 317.17 195.14 318.51 197.92 C 315.90 198.09 313.21 198.44 311.02 199.99 C 303.75 204.71 295.65 207.89 288.22 212.32 C 283.95 214.90 279.62 217.40 275.08 219.49 C 275.04 219.80 275.01 220.12 274.97 220.44 C 273.10 221.15 271.21 221.85 269.44 222.79 C 260.10 228.13 250.37 232.75 241.18 238.33 C 237.49 240.62 233.56 242.46 229.71 244.44 C 225.93 247.30 221.42 248.89 217.44 251.43 C 210.05 256.19 201.77 259.30 194.27 263.87 C 188.54 267.48 182.11 269.78 176.39 273.43 C 164.66 280.05 153.04 286.90 140.97 292.90 C 134.21 296.24 127.94 300.52 120.99 303.47 C 121.07 303.92 121.16 304.37 121.25 304.83 C 119.74 304.93 118.24 305.04 116.74 305.15 C 116.84 305.62 116.94 306.10 117.04 306.58 C 111.64 308.91 106.38 311.57 101.15 314.25 C 98.86 315.58 95.84 316.95 95.57 319.96 C 95.90 320.27 96.56 320.91 96.90 321.23 C 103.90 319.01 109.98 314.69 116.68 311.74 C 124.37 308.49 130.98 303.16 138.82 300.21 C 144.02 298.29 148.14 294.42 153.17 292.19 C 157.86 290.07 162.26 287.39 167.04 285.46 C 167.00 285.14 166.96 284.82 166.92 284.50 C 176.21 281.59 184.19 275.84 192.87 271.61 C 199.00 268.62 204.63 264.56 211.19 262.48 C 211.01 262.03 210.83 261.59 210.66 261.15 C 212.22 261.04 213.78 260.94 215.34 260.84 C 215.15 260.38 214.97 259.93 214.79 259.47 C 221.08 257.75 226.07 253.32 232.08 250.94 C 238.49 248.29 244.03 243.99 250.39 241.23 C 256.34 238.20 262.30 235.20 268.33 232.33 C 277.62 227.14 286.86 221.83 296.61 217.53 C 301.38 215.47 305.45 212.13 310.19 210.02 C 314.16 208.31 317.84 206.04 321.23 203.36 C 325.61 210.84 330.59 218.09 336.87 224.12 C 341.33 228.43 346.54 231.84 351.56 235.44 C 356.91 239.33 363.21 241.52 369.12 244.39 C 370.57 248.89 372.39 253.27 374.01 257.72 C 368.36 261.41 362.77 265.24 357.75 269.78 C 353.00 274.10 347.33 277.18 342.28 281.09 C 333.36 288.31 323.48 294.26 314.82 301.80 C 303.23 310.18 291.76 318.71 280.48 327.49 C 276.04 331.10 270.84 333.71 266.77 337.77 C 262.61 341.79 257.41 344.43 252.85 347.93 C 243.74 354.75 234.99 362.07 225.32 368.10 C 218.73 373.67 212.09 379.22 204.79 383.86 C 200.52 386.46 197.24 390.34 193.02 393.00 C 185.95 397.45 179.93 403.30 173.12 408.09 C 163.84 414.42 155.07 421.44 145.83 427.83 C 139.48 432.03 134.53 438.39 127.04 440.75 C 119.04 433.85 110.20 427.80 103.54 419.47 C 98.21 412.51 92.10 406.12 87.52 398.60 C 80.83 388.68 75.64 377.83 71.34 366.69 C 69.47 360.76 67.91 354.73 65.95 348.84 C 63.57 344.21 64.56 338.84 63.25 333.92 C 62.48 322.09 63.51 310.19 62.71 298.34 C 70.95 293.44 80.05 290.33 88.89 286.73 C 97.88 282.17 107.36 278.72 116.55 274.62 C 129.81 268.68 143.26 263.20 156.65 257.58 C 162.40 255.03 167.97 252.05 173.87 249.84 C 181.72 246.92 189.10 242.94 196.92 239.93 C 205.29 238.10 212.61 233.51 220.51 230.39 C 228.49 227.23 236.31 223.70 244.12 220.14 C 254.36 216.26 263.97 210.91 274.28 207.21 Z" />
<path fill="#04060a" stroke="#04060a" stroke-width="0.09375" opacity="1.00" d=" M 311.02 199.99 C 313.21 198.44 315.90 198.09 318.51 197.92 C 319.38 199.75 320.26 201.57 321.23 203.36 C 317.84 206.04 314.16 208.31 310.19 210.02 C 305.45 212.13 301.38 215.47 296.61 217.53 C 286.86 221.83 277.62 227.14 268.33 232.33 C 262.30 235.20 256.34 238.20 250.39 241.23 C 244.03 243.99 238.49 248.29 232.08 250.94 C 226.07 253.32 221.08 257.75 214.79 259.47 C 214.97 259.93 215.15 260.38 215.34 260.84 C 213.78 260.94 212.22 261.04 210.66 261.15 C 210.83 261.59 211.01 262.03 211.19 262.48 C 204.63 264.56 199.00 268.62 192.87 271.61 C 184.19 275.84 176.21 281.59 166.92 284.50 C 166.96 284.82 167.00 285.14 167.04 285.46 C 162.26 287.39 157.86 290.07 153.17 292.19 C 148.14 294.42 144.02 298.29 138.82 300.21 C 130.98 303.16 124.37 308.49 116.68 311.74 C 109.98 314.69 103.90 319.01 96.90 321.23 C 96.56 320.91 95.90 320.27 95.57 319.96 C 95.84 316.95 98.86 315.58 101.15 314.25 C 106.38 311.57 111.64 308.91 117.04 306.58 C 116.94 306.10 116.84 305.62 116.74 305.15 C 118.24 305.04 119.74 304.93 121.25 304.83 C 121.16 304.37 121.07 303.92 120.99 303.47 C 127.94 300.52 134.21 296.24 140.97 292.90 C 153.04 286.90 164.66 280.05 176.39 273.43 C 182.11 269.78 188.54 267.48 194.27 263.87 C 201.77 259.30 210.05 256.19 217.44 251.43 C 221.42 248.89 225.93 247.30 229.71 244.44 C 233.56 242.46 237.49 240.62 241.18 238.33 C 250.37 232.75 260.10 228.13 269.44 222.79 C 271.21 221.85 273.10 221.15 274.97 220.44 C 275.01 220.12 275.04 219.80 275.08 219.49 C 279.62 217.40 283.95 214.90 288.22 212.32 C 295.65 207.89 303.75 204.71 311.02 199.99 Z" />
<path fill="#04060a" stroke="#04060a" stroke-width="0.09375" opacity="1.00" d=" M 248.25 209.28 C 249.47 209.17 250.70 209.08 251.93 209.03 C 250.01 211.33 248.06 213.60 246.12 215.88 C 247.34 215.91 248.56 215.91 249.79 215.90 C 244.28 218.77 238.56 221.17 232.95 223.81 C 220.94 229.18 208.39 233.43 196.92 239.93 C 189.10 242.94 181.72 246.92 173.87 249.84 C 167.97 252.05 162.40 255.03 156.65 257.58 C 143.26 263.20 129.81 268.68 116.55 274.62 C 107.36 278.72 97.88 282.17 88.89 286.73 C 80.05 290.33 70.95 293.44 62.71 298.34 C 58.13 300.40 53.18 301.48 48.56 303.48 C 48.88 303.95 49.20 304.42 49.51 304.90 C 46.72 305.40 43.90 305.73 41.07 305.91 C 41.23 304.53 41.36 303.17 41.53 301.80 C 45.62 300.76 49.62 299.41 53.55 297.87 C 53.23 297.42 52.90 296.97 52.58 296.52 C 56.27 295.57 59.76 294.04 63.22 292.48 C 70.22 289.68 76.82 285.97 83.97 283.54 C 83.97 283.17 83.97 282.81 83.97 282.45 C 89.32 280.97 94.47 278.86 99.37 276.25 C 104.49 273.47 110.14 271.87 115.25 269.08 C 121.64 265.61 128.28 262.63 135.11 260.14 C 143.35 257.18 150.87 252.63 158.85 249.10 C 163.09 247.38 167.48 245.95 171.39 243.54 C 176.69 240.36 182.83 239.11 188.27 236.23 C 191.12 234.71 194.01 233.22 197.05 232.10 C 203.55 229.89 209.17 225.44 216.15 224.60 C 216.09 224.23 216.04 223.86 215.99 223.49 C 226.69 218.65 237.67 214.40 248.25 209.28 Z" />
<path fill="#334a74" stroke="#334a74" stroke-width="0.09375" opacity="1.00" d=" M 364.98 274.04 C 368.98 270.99 372.80 267.34 377.84 266.11 L 377.23 266.92 C 354.74 282.74 332.83 299.40 310.43 315.36 C 303.05 320.65 295.89 326.22 288.49 331.47 C 281.39 335.93 275.13 341.54 268.12 346.13 C 227.74 375.76 187.12 405.05 146.76 434.71 C 142.19 438.06 137.08 440.86 133.56 445.43 C 133.04 445.21 132.00 444.78 131.48 444.56 L 131.99 444.15 C 145.26 433.57 159.45 424.19 173.00 413.97 C 179.77 408.70 186.96 403.99 193.78 398.78 C 201.01 393.24 208.76 388.40 215.68 382.47 C 222.10 378.04 228.26 373.26 234.41 368.48 C 240.17 365.01 245.71 361.21 250.87 356.88 C 289.02 329.43 326.88 301.57 364.98 274.04 Z" />
<path fill="#6695e8" stroke="#6695e8" stroke-width="0.09375" opacity="1.00" d=" M 310.43 315.36 C 332.83 299.40 354.74 282.74 377.23 266.92 C 377.57 272.20 381.10 276.68 380.76 282.03 C 380.52 285.57 383.44 288.38 383.04 291.94 C 383.00 303.29 382.97 314.64 383.03 326.00 C 383.00 329.63 383.49 333.47 381.75 336.82 C 380.41 339.62 380.96 342.79 380.34 345.74 C 376.63 355.94 374.64 366.81 369.55 376.50 C 364.35 388.86 357.19 400.34 348.65 410.66 C 341.29 421.15 331.91 430.03 321.66 437.64 C 311.44 446.33 299.81 453.26 287.51 458.56 C 279.44 462.48 270.93 465.56 262.14 467.43 C 260.28 467.90 258.57 468.78 256.74 469.35 C 253.78 469.96 250.61 469.41 247.82 470.76 C 244.47 472.50 240.63 472.00 237.00 472.03 C 225.65 471.97 214.29 472.00 202.94 472.04 C 200.66 472.18 198.56 471.30 196.49 470.48 C 193.41 469.24 189.91 470.19 186.84 468.87 C 182.64 467.09 178.07 466.55 173.78 465.04 C 166.55 462.95 159.96 459.21 152.85 456.80 C 149.47 455.65 146.81 453.15 143.66 451.55 C 140.14 449.78 136.77 447.71 133.56 445.43 C 137.08 440.86 142.19 438.06 146.76 434.71 C 187.12 405.05 227.74 375.76 268.12 346.13 C 275.13 341.54 281.39 335.93 288.49 331.47 C 295.89 326.22 303.05 320.65 310.43 315.36 Z" />
<path fill="#06090e" stroke="#06090e" stroke-width="0.09375" opacity="1.00" d=" M 204.79 383.86 C 212.09 379.22 218.73 373.67 225.32 368.10 C 226.01 368.11 227.38 368.12 228.07 368.12 C 224.34 373.26 218.15 376.45 215.68 382.47 C 208.76 388.40 201.01 393.24 193.78 398.78 C 186.96 403.99 179.77 408.70 173.00 413.97 C 159.45 424.19 145.26 433.57 131.99 444.15 C 130.54 443.06 128.96 442.16 127.51 441.07 L 127.04 440.75 C 134.53 438.39 139.48 432.03 145.83 427.83 C 155.07 421.44 163.84 414.42 173.12 408.09 C 179.93 403.30 185.95 397.45 193.02 393.00 C 197.24 390.34 200.52 386.46 204.79 383.86 Z" />
<path fill="#000000" stroke="#000000" stroke-width="0.09375" opacity="0.88" d=" M 127.51 441.07 C 128.96 442.16 130.54 443.06 131.99 444.15 L 131.48 444.56 C 128.71 446.78 125.64 448.61 123.03 451.04 C 120.25 453.60 117.47 456.29 114.03 457.98 C 112.78 458.74 111.36 458.00 110.06 457.84 C 110.33 456.12 110.40 454.13 112.08 453.14 C 117.20 449.09 122.69 445.49 127.51 441.07 Z" />
</svg>
